# xmcd CD database file
#
# Track frame offsets:
#	150
#	13705
#	28530
#	47090
#	64197
#	80707
#	92705
#	107857
#	124237
#	137307
#	150652
#
# Disc length: 2264 seconds
#
# Revision: 4
# Processed by: cddbd v1.4PL0 Copyright (c) Steve Scherf et al.
# Submitted via: CDex 1.40Beta9
#
DISCID=8b08d60b
DTITLE=Alecia Elliott - I'm Diggin' It
DYEAR=2000
DGENRE=Country
TTITLE0=Some People Fall, Some People Fly
TTITLE1=I Don't Understand
TTITLE2=I'm Waiting For You
TTITLE3=Ain't No Ordinary Love
TTITLE4=Every Heart
TTITLE5=I'm Diggin' It
TTITLE6=That's The Only Way
TTITLE7=Say You Will
TTITLE8=You Wanna What?
TTITLE9=Stay Awhile
TTITLE10=Some Say I'm Running
EXTD=YEAR: 2000 ID3G: 2
EXTT0=
EXTT1=
EXTT2=
EXTT3=
EXTT4=
EXTT5=
EXTT6=
EXTT7=
EXTT8=
EXTT9=
EXTT10=
PLAYORDER=
